<svg xmlns="http://www.w3.org/2000/svg" xmlns:bx="https://boxy-svg.com" width="512" height="512" preserveAspectRatio="xMidYMid meet" class="iconify iconify--fxemoji" role="img" aria-hidden="true" viewBox="0 0 512 512"><defs fill="#000000"><bx:export fill="#000000"><bx:file format="svg" href="#object-0" path="Layer 1.svg" fill="#000000"/><bx:file format="svg" path="art.svg" fill="#000000"/><bx:file format="svg" href="#svg_1" excluded="true" fill="#000000"/><bx:file format="svg" href="#svg_4" path="Untitled 3.svg" excluded="true" fill="#000000"/><bx:file format="svg" href="#svg_1" path="Untitled 2.svg" excluded="true" fill="#000000"/><bx:file format="svg" href="#svg_1" path="Untitled 4.svg" fill="#000000"/><bx:file format="svg" href="#svg_4" path="Untitled 5.svg" fill="#000000"/></bx:export></defs><g id="object-0"><title>Layer 1</title><path id="svg_1" d="m254,0c141.4,0 256,114.6 256,256s-114.6,256 -256,256s-256,-114.7 -256,-256c0,-141.4 114.6,-256 256,-256z" style="fill: #ff7900;"/><g id="svg_4" stroke="null" transform="matrix(1.135457, 0, 0, 1.135457, -44.247586, -12.662195)" style=""><g transform="matrix(1.177085, 0, 0, 1.177085, -59.974286, -47.231587)" style=""><g><path d="M 368.331 131.73 C 371.888 125.505 382.56 125.505 387.006 134.398 C 388.784 137.065 398.566 203.758 398.566 216.207 C 398.566 228.657 399.455 239.328 387.895 260.669 C 376.335 282.01 362.996 298.017 362.996 314.023 C 362.996 330.029 410.527 374.235 410.527 374.235 C 414.423 371.411 398.196 395.433 351.812 416.181 C 351.812 416.181 321.202 318.47 327.427 287.346 C 327.427 287.346 330.095 263.337 345.211 233.992 C 360.328 204.647 368.331 131.73 368.331 131.73 Z" fill="#fbc02d" id="svg_5" stroke="null" style=""/><path d="M 161.893 137.484 C 163.589 126.463 145.785 124.767 140.698 131.55 C 135.612 138.332 128.829 148.505 127.981 156.984 C 127.133 165.462 124.59 198.526 133.916 219.722 C 143.242 240.918 168.676 264.656 168.676 286.7 C 168.676 308.742 151.973 388.214 151.973 388.214 C 152.559 387.787 171.099 406.97 195.442 415.373 C 195.442 400.113 200.045 318.916 200.045 312.134 C 200.893 296.025 216.154 285.851 211.915 264.656 L 161.893 137.484 Z" fill="#fbc02d" id="svg_6" stroke="null" style=""/><path d="M 269.809 53.352 L 269.716 53.352 C 269.716 53.352 152.5 54.361 152.5 166.167 C 152.5 236.167 192.361 246.861 210.833 282.833 C 229.306 318.806 219.583 370.333 269.167 370.333 C 270.139 370.333 274.028 370.333 275 370.333 C 324.583 370.333 318.75 309.083 337.222 273.111 C 355.694 237.139 376.111 236.167 376.111 166.167 C 376.111 54.361 269.809 53.352 269.809 53.352 Z" fill="#fbc02d" id="svg_7" stroke="null"/><path d="M 321.667 321.722 C 319.722 333.389 317.778 341.167 317.778 341.167 C 317.778 341.167 300.278 428.667 269.167 428.667 C 249.722 428.667 227.361 338.25 227.361 338.25 C 233.194 356.722 242.917 370.333 269.167 370.333 C 270.139 370.333 274.028 370.333 275 370.333 C 305.139 370.333 314.861 347 321.667 321.722 Z M 391.209 168.842 C 391.209 157.175 388.188 141.099 386.913 133.049 C 383.792 125.296 377.365 122.823 371.587 128.579 C 374.504 138.301 376.111 153.528 376.111 166.167 C 376.111 236.167 355.694 237.139 337.222 273.111 C 333.333 279.917 331.24 287.395 328.323 296.145 C 327.351 300.034 326.903 301.83 326.903 301.83 C 324.959 312.524 329.256 328.991 334.118 348.435 C 339.951 336.768 341.111 326.583 344.028 314.917 C 346.944 302.278 349.861 290.611 354.722 281.861 C 359.583 273.111 363.472 267.278 368.333 260.472 C 381.944 241.028 391.209 226.203 391.209 168.842 Z M 152.5 166.167 C 152.5 156.444 153.472 148.667 154.444 140.889 L 156.481 131.254 C 157.453 122.504 138.369 129.984 140.622 132.262 C 135.503 143.929 130.768 152.556 132.083 167.139 C 137.06 222.332 154.444 247.833 172.917 267.278 C 180.694 276.028 187.5 283.806 192.361 292.556 C 197.222 301.306 196.473 312 199.389 322.694 C 204.25 312 213.481 299.172 210.564 282.383 C 210.564 281.411 209.995 279.361 209.995 279.361 C 192.495 242.416 152.5 236.167 152.5 166.167 Z" fill="#b57234" id="svg_8" stroke="null"/><path d="m275,248.80555c-3.88889,-5.83333 -12.63889,-6.80556 -18.47222,-2.91667c-4.86111,2.91667 -5.83333,8.75 -6.80556,14.58333c-1.94444,19.44444 3.88889,39.86111 15.55556,56.38889c0.97222,1.94444 2.91667,3.88889 4.86111,4.86111c4.86111,1.94444 9.72222,-2.91667 11.66667,-6.80556c4.86111,-8.75 6.80556,-19.44444 5.83333,-30.13889c-2.91667,-24.30556 -12.63889,-35.97222 -12.63889,-35.97222l0,0.00001z" fill="#6D4C41" id="svg_9" stroke="null"/><path d="m259.44444,214.77778c0,5.83333 -3.88889,9.72222 -9.72222,9.72222s-9.72222,-3.88889 -9.72222,-9.72222s3.88889,-9.72222 9.72222,-9.72222s9.72222,3.88889 9.72222,9.72222zm19.44444,-9.72222c-5.83333,0 -9.72222,3.88889 -9.72222,9.72222s3.88889,9.72222 9.72222,9.72222s9.72222,-3.88889 9.72222,-9.72222s-3.88889,-9.72222 -9.72222,-9.72222z" fill="#b57234" id="svg_10" stroke="null"/><path d="m220.55556,175.88889c0,5.83333 -3.88889,9.72222 -9.72222,9.72222s-9.72222,-3.88889 -9.72222,-9.72222c0,-5.83333 3.88889,-9.72222 9.72222,-9.72222s9.72222,3.88889 9.72222,9.72222zm77.77778,-19.44444c-5.83333,0 -9.72222,3.88889 -9.72222,9.72222s3.88889,9.72222 9.72222,9.72222s9.72222,-3.88889 9.72222,-9.72222s-3.88889,-9.72222 -9.72222,-9.72222z" fill="#4E342E" id="svg_11" stroke="null"/></g><g><g/></g></g></g></g></svg>