<svg xmlns="http://www.w3.org/2000/svg" viewBox="2.077 0.0039 57.923 63.9761" width="630.923px" height="630.9761px">
  <defs>
    <style type="text/css">.st0{fill:#FFFFFF;}
	.st1{fill:#ACBDC5;}
	.st2{fill:#314A52;}
	.st3{fill:#D7385E;}
	.st4{fill:#FF6C58;}</style>
  </defs>
  <path class="st0" d="m27,3.4l-16,9.2c-3.1,1.8 -5,5.1 -5,8.7l0,21.4c0,3.6 1.9,6.9 5,8.7l16,9.2c3.1,1.8 6.9,1.8 10,0l16,-9.2c3.1,-1.8 5,-5.1 5,-8.7l0,-21.4c0,-3.6 -1.9,-6.9 -5,-8.7l-16,-9.2c-3.1,-1.8 -6.9,-1.8 -10,0z" id="svg_1" transform="matrix(1, 0, 0, 1, 1.4210854715202004e-14, 7.105427357601002e-15)" style="fill: rgb(177, 20, 129);"></path>
  <path class="st1" d="M 11.237 13.761 L 16.237 10.861 L 14.237 7.461 L 8.907 10.191 C 5.207 12.291 3.237 16.461 3.237 20.761 L 3.237 42.161 C 3.237 46.461 5.537 50.461 9.237 52.561 L 25.237 61.761 C 28.937 63.861 33.537 63.861 37.237 61.761 L 53.237 52.561 C 56.937 50.461 59.237 46.461 59.237 42.161 L 59.237 39.461 L 57.407 38.721 L 57.967 21.771 C 57.967 18.671 52.447 19.361 49.747 20.861 L 35.247 29.161 C 32.747 30.561 31.247 33.261 31.247 36.061 L 31.117 54.461 C 31.117 63.961 21.147 54.261 12.947 50.061 L 11.247 49.061 C 8.747 47.661 7.247 44.961 7.247 42.161 L 7.247 20.761 C 7.247 17.861 8.747 15.261 11.247 13.761 L 11.237 13.761 Z" id="svg_2" style="fill: rgb(130, 16, 77);"></path>
  <path class="st2" d="M 13.1 12.474 L 10.83 9.02 L 26 1.543 C 29.7 -0.535 34.3 -0.507 38 1.616 L 54 10.913 C 57.7 13.036 60 17.05 60 21.35 L 60 42.75 C 60 47.05 55.66 51.393 51.96 53.471 C 51.22 52.316 50.48 51.172 49.75 50.017 L 49.83 49.688 L 50.14 49.22 C 52.64 47.835 55.99 45.525 55.99 42.725 L 55.99 21.425 C 55.99 18.525 54.49 15.916 51.99 14.501 L 35.99 5.104 C 33.49 3.688 30.49 3.67 27.99 5.055 L 13.09 12.474 L 13.1 12.474 Z M 12.7 33.362 C 13.8 35.368 15.9 36.281 17.4 35.39 C 18.9 34.499 19.1 32.201 18 30.194 C 16.9 28.187 14.8 27.274 13.3 28.165 C 11.8 29.056 11.6 31.355 12.7 33.362 L 12.7 33.362 Z M 50.9 28.394 C 49.7 27.687 47.9 28.376 46.9 30.07 C 45.9 31.764 46.2 33.566 47.4 34.273 C 48.6 34.98 50.4 34.291 51.4 32.597 C 52.4 30.903 52.1 29.102 50.9 28.394 Z M 45.7 37.163 C 44.5 36.455 42.7 37.144 41.7 38.838 C 40.7 40.432 41 42.334 42.2 43.041 C 43.4 43.749 45.2 43.06 46.2 41.366 C 47.2 39.672 47 37.871 45.7 37.163 Z M 37.1 51.71 C 38.3 52.418 40.1 51.729 41.1 50.035 C 42.1 48.441 41.8 46.539 40.6 45.832 C 39.4 45.124 37.6 45.813 36.6 47.507 C 35.6 49.201 35.9 51.003 37.1 51.71 Z M 27.3 46.451 C 26.2 44.444 24.1 43.531 22.6 44.422 C 21.1 45.313 20.9 47.612 22 49.618 C 23.1 51.625 25.2 52.538 26.7 51.647 C 28.2 50.756 28.4 48.457 27.3 46.451 Z" id="svg_3" style="fill: rgb(85, 0, 46);" transform="matrix(1, 0, 0, 1, 1.4210854715202004e-14, 7.105427357601002e-15)"></path>
  <path class="st3" d="m40,17c0,2.8 -3.6,4 -8,4c-4.4,0 -8,-1.2 -8,-4c0,-2.8 3.6,-5 8,-5c4.4,0 8,2.2 8,5z" id="svg_4" transform="matrix(1, 0, 0, 1, 1.4210854715202004e-14, 7.105427357601002e-15)" style="fill: rgb(84, 0, 61);"></path>
  <path class="st4" d="m39.8,15.9c0,0 0,0.1 0,0c0,1.2 -3.5,2.1 -7.8,2.1c-4.3,0 -7.8,-0.9 -7.8,-2c0,0 0,-0.1 0,-0.1c-0.1,0.4 -0.2,0.7 -0.2,1.1c0,2.8 3.6,5 8,5c4.4,0 8,-2.2 8,-5c0,-0.4 -0.1,-0.7 -0.2,-1.1z" id="svg_5" transform="matrix(1, 0, 0, 1, 1.4210854715202004e-14, 7.105427357601002e-15)" style="fill: rgb(62, 0, 37);"></path>
</svg>