<?xml version="1.0" encoding="utf-8"?>
<svg xmlns="http://www.w3.org/2000/svg" viewBox="-2 0 512 512" width="512px" height="512px"><g id="object-0" transform="matrix(1, 0, 0, 1, 0, -1.4210854715202004e-14)"><title>Layer 1</title><path id="svg_1" d="m254,0c141.4,0 256,114.6 256,256s-114.6,256 -256,256s-256,-114.7 -256,-256c0,-141.4 114.6,-256 256,-256z" fill="#884D58"/><path d="m220.55556,282.83333c0,0 -36.13889,-49.66666 -103.38889,11.33334c-15.36111,20.82407 -28.47223,48.14814 -26.83334,75.84722c1.63889,27.69907 26.02778,76.77315 90.66667,89.09722l87,12c163,11.36111 194.36805,-138.63889 147.1493,-165.88889c-47.21875,-27.25 -74.0243,-14.75 -97.37152,-22.38889l-97.22222,0z" fill="#4E342E" id="svg_3" stroke="null"/><g id="svg_4" stroke="null"><path d="m372.22222,132.13889c3.88889,-6.80556 15.55556,-6.80556 20.41667,2.91667c1.94444,2.91667 12.63889,75.83333 12.63889,89.44444s0.97222,25.27778 -11.66667,48.61111c-12.63889,23.33333 -27.22222,40.83333 -27.22222,58.33333c0,17.5 29.16667,77.77778 29.16667,77.77778s-10.69444,17.5 -38.88889,29.16667c0,0 -35.97222,-102.08333 -29.16667,-136.11111c0,0 2.91667,-26.25 19.44444,-58.33333s25.27778,-111.80556 25.27778,-111.80556z" fill="#FBC02D" id="svg_5" stroke="null"/><path d="m154.44444,138.94444c1.94444,-12.63889 -18.47222,-14.58333 -24.30556,-6.80556s-13.61111,19.44444 -14.58333,29.16667c-0.97222,9.72222 -3.88889,47.63889 6.80556,71.94444s39.86111,51.52778 39.86111,76.80556s-17.5,118.61111 -17.5,118.61111c13.61111,0 31.11111,0.97222 46.66667,-12.63889c0,-17.5 6.80556,-69.02778 6.80556,-76.80556c0.97222,-18.47222 18.47222,-30.13889 13.61111,-54.44444l-57.36111,-145.83333l-0.00001,0z" fill="#FBC02D" id="svg_6" stroke="null"/><path d="m269.16667,49.5l-9.72222,0c0,0 -106.94444,4.86111 -106.94444,116.66667c0,70 39.86111,80.69444 58.33333,116.66667c18.47222,35.97222 8.75,87.5 58.33333,87.5c0.97222,0 4.86111,0 5.83333,0c49.58333,0 43.75,-61.25 62.22222,-97.22222c18.47222,-35.97222 38.88889,-36.94444 38.88889,-106.94444c0,-111.80556 -106.94444,-116.66667 -106.94444,-116.66667l0,-0.00001z" fill="#FBC02D" id="svg_7" stroke="null"/></g><path d="m321.66667,321.72222c-1.94444,11.66667 -3.88889,19.44444 -3.88889,19.44444s-17.5,87.5 -48.61111,87.5c-19.44444,0 -41.80556,-90.41667 -41.80556,-90.41667s0,0 0,0c5.83333,18.47222 15.55556,32.08333 41.80556,32.08333c0.97222,0 4.86111,0 5.83333,0c30.13889,0 39.86111,-23.33333 46.66667,-48.61111l0,0.00001zm73.88889,-155.55556c0,-11.66667 -0.97222,-21.38889 -2.91667,-31.11111c-4.86111,-9.72222 -16.52778,-9.72222 -20.41667,-2.91667c0,0 0,0 0,0c2.91667,9.72222 3.88889,21.38889 3.88889,34.02778c0,70 -20.41667,70.97222 -38.88889,106.94444c-3.88889,6.80556 -5.83333,14.58333 -8.75,23.33333c-0.97222,3.88889 -0.97222,5.83333 -0.97222,5.83333c-1.94444,10.69444 0,29.16667 4.86111,48.61111c5.83333,-11.66667 8.75,-24.30556 11.66667,-35.97222c2.91667,-12.63889 5.83333,-24.30556 10.69444,-33.05556c4.86111,-8.75 8.75,-14.58333 13.61111,-21.38889c13.61111,-19.44444 27.22222,-36.94444 27.22222,-94.30556l0.00001,0.00002zm-243.05555,0c0,-9.72222 0.97222,-17.5 1.94444,-25.27778l-0.97222,-1.94444c0.97222,-8.75 -8.75,-12.63889 -16.52778,-10.69444c-2.91667,11.66667 -4.86111,24.30556 -4.86111,38.88889c0,55.41667 22.36111,80.69444 40.83333,100.13889c7.77778,8.75 14.58333,16.52778 19.44444,25.27778c4.86111,8.75 6.80556,19.44444 9.72222,30.13889c4.86111,-10.69444 11.66667,-21.38889 8.75,-36.94444c0,-0.97222 -0.97222,-1.94444 -0.97222,-1.94444c-17.5,-36.94444 -57.36111,-47.63889 -57.36111,-117.63889l0.00001,-0.00002z" fill="#F57F17" id="svg_8" stroke="null"/><path d="m275,248.80555c-3.88889,-5.83333 -12.63889,-6.80556 -18.47222,-2.91667c-4.86111,2.91667 -5.83333,8.75 -6.80556,14.58333c-1.94444,19.44444 3.88889,39.86111 15.55556,56.38889c0.97222,1.94444 2.91667,3.88889 4.86111,4.86111c4.86111,1.94444 9.72222,-2.91667 11.66667,-6.80556c4.86111,-8.75 6.80556,-19.44444 5.83333,-30.13889c-2.91667,-24.30556 -12.63889,-35.97222 -12.63889,-35.97222l0,0.00001z" fill="#6D4C41" id="svg_9" stroke="null"/><path d="m259.44444,214.77778c0,5.83333 -3.88889,9.72222 -9.72222,9.72222s-9.72222,-3.88889 -9.72222,-9.72222s3.88889,-9.72222 9.72222,-9.72222s9.72222,3.88889 9.72222,9.72222zm19.44444,-9.72222c-5.83333,0 -9.72222,3.88889 -9.72222,9.72222s3.88889,9.72222 9.72222,9.72222s9.72222,-3.88889 9.72222,-9.72222s-3.88889,-9.72222 -9.72222,-9.72222z" fill="#F57F17" id="svg_10" stroke="null"/><path d="m220.55556,175.88889c0,5.83333 -3.88889,9.72222 -9.72222,9.72222s-9.72222,-3.88889 -9.72222,-9.72222c0,-5.83333 3.88889,-9.72222 9.72222,-9.72222s9.72222,3.88889 9.72222,9.72222zm77.77778,-19.44444c-5.83333,0 -9.72222,3.88889 -9.72222,9.72222s3.88889,9.72222 9.72222,9.72222s9.72222,-3.88889 9.72222,-9.72222s-3.88889,-9.72222 -9.72222,-9.72222z" fill="#4E342E" id="svg_11" stroke="null"/></g></svg>