<svg width="512" height="512" xmlns="http://www.w3.org/2000/svg" xml:space="preserve" version="1.1">

 <g>
  <title>Layer 1</title>
  <circle id="svg_1" fill="#303030" r="256" cy="256" cx="256"/>
  <path id="svg_2" fill="#0F161A" d="m256,505.6c-137.632,0 -249.6,-111.968 -249.6,-249.6s111.968,-249.6 249.6,-249.6s249.6,111.968 249.6,249.6s-111.968,249.6 -249.6,249.6z"/>
  <g id="svg_3" opacity="0.2">
   <path id="svg_4" fill="#588199" d="m79.588,79.584c-45.192,45.204 -73.188,107.6 -73.188,176.416s27.996,131.212 73.188,176.416l176.412,-176.416l-176.412,-176.416z"/>
   <path id="svg_5" fill="#588199" d="m505.6,256c0,-68.812 -27.992,-131.212 -73.188,-176.416l-176.412,176.416l176.416,176.416c45.192,-45.204 73.184,-107.604 73.184,-176.416z"/>
  </g>
  <path id="svg_6" fill="#b20000" d="m256,352c-52.936,0 -96,-43.064 -96,-96s43.064,-96 96,-96s96,43.064 96,96s-43.064,96 -96,96z"/>
  <path id="svg_7" fill="#ff0000" d="m256,339.2c-45.88,0 -83.2,-37.324 -83.2,-83.2s37.32,-83.2 83.2,-83.2c45.884,0 83.2,37.324 83.2,83.2s-37.316,83.2 -83.2,83.2z"/>
  <circle stroke="null" id="svg_8" fill="#242424" r="11.9" cy="254.49999" cx="256.50001"/>
 </g>
</svg>